<svg width="25" height="25" viewBox="0 0 25 25" fill="none" xmlns="http://www.w3.org/2000/svg">
<path fill-rule="evenodd" clip-rule="evenodd" d="M12.5 18.75C15.9518 18.75 18.75 15.9518 18.75 12.5C18.75 9.04822 15.9518 6.25 12.5 6.25C9.04822 6.25 6.25 9.04822 6.25 12.5C6.25 15.9518 9.04822 18.75 12.5 18.75ZM12.5 16.6667C14.8011 16.6667 16.6667 14.8011 16.6667 12.5C16.6667 10.1988 14.8011 8.33333 12.5 8.33333C10.1988 8.33333 8.33333 10.1988 8.33333 12.5C8.33333 14.8011 10.1988 16.6667 12.5 16.6667Z" fill="#0F0F0F"/>
<path d="M18.75 5.2085C18.1747 5.2085 17.7084 5.67487 17.7084 6.25016C17.7084 6.82545 18.1747 7.29183 18.75 7.29183C19.3254 7.29183 19.7917 6.82545 19.7917 6.25016C19.7917 5.67487 19.3254 5.2085 18.75 5.2085Z" fill="#0F0F0F"/>
<path fill-rule="evenodd" clip-rule="evenodd" d="M1.72283 4.45407C1.04163 5.79101 1.04163 7.54118 1.04163 11.0415V13.9582C1.04163 17.4585 1.04163 19.2087 1.72283 20.5456C2.32204 21.7216 3.27817 22.6778 4.45419 23.2769C5.79114 23.9582 7.5413 23.9582 11.0416 23.9582H13.9583C17.4586 23.9582 19.2088 23.9582 20.5457 23.2769C21.7217 22.6778 22.6779 21.7216 23.277 20.5456C23.9583 19.2087 23.9583 17.4585 23.9583 13.9582V11.0415C23.9583 7.54118 23.9583 5.79101 23.277 4.45407C22.6779 3.27805 21.7217 2.32192 20.5457 1.72271C19.2088 1.0415 17.4586 1.0415 13.9583 1.0415H11.0416C7.5413 1.0415 5.79114 1.0415 4.45419 1.72271C3.27817 2.32192 2.32204 3.27805 1.72283 4.45407ZM13.9583 3.12484H11.0416C9.25708 3.12484 8.04397 3.12646 7.10629 3.20307C6.19292 3.27769 5.72583 3.41295 5.4 3.57897C4.61599 3.97845 3.97857 4.61587 3.57909 5.39988C3.41307 5.72571 3.27781 6.1928 3.20319 7.10617C3.12658 8.04385 3.12496 9.25696 3.12496 11.0415V13.9582C3.12496 15.7428 3.12658 16.9558 3.20319 17.8935C3.27781 18.8069 3.41307 19.274 3.57909 19.5998C3.97857 20.3838 4.61599 21.0212 5.4 21.4207C5.72583 21.5867 6.19292 21.722 7.10629 21.7966C8.04397 21.8732 9.25708 21.8748 11.0416 21.8748H13.9583C15.7429 21.8748 16.9559 21.8732 17.8936 21.7966C18.807 21.722 19.2741 21.5867 19.6 21.4207C20.3839 21.0212 21.0213 20.3838 21.4208 19.5998C21.5868 19.274 21.7221 18.8069 21.7967 17.8935C21.8733 16.9558 21.875 15.7428 21.875 13.9582V11.0415C21.875 9.25696 21.8733 8.04385 21.7967 7.10617C21.7221 6.1928 21.5868 5.72571 21.4208 5.39988C21.0213 4.61587 20.3839 3.97845 19.6 3.57897C19.2741 3.41295 18.807 3.27769 17.8936 3.20307C16.9559 3.12646 15.7429 3.12484 13.9583 3.12484Z" fill="#0F0F0F"/>
</svg>
