<svg width="23" height="23" viewBox="0 0 23 23" fill="none" xmlns="http://www.w3.org/2000/svg">
<g clip-path="url(#clip0_3064_572)">
<path fill-rule="evenodd" clip-rule="evenodd" d="M9.1867 14.4742V8.02064C11.4777 9.09868 13.2521 10.1401 15.3507 11.2629C13.6198 12.2228 11.4777 13.2998 9.1867 14.4742ZM21.9547 4.81097C21.5595 4.2903 20.8859 3.885 20.1688 3.75082C18.061 3.35056 4.91163 3.34942 2.80503 3.75082C2.22997 3.85862 1.71791 4.11919 1.27803 4.52403C-0.575417 6.24432 0.00536611 15.4697 0.452119 16.964C0.639983 17.6109 0.882843 18.0773 1.1887 18.3836C1.58276 18.7884 2.12229 19.0671 2.74201 19.1921C4.47747 19.5511 13.4182 19.7518 20.1321 19.2461C20.7507 19.1383 21.2983 18.8505 21.7301 18.4285C23.4438 16.7151 23.327 6.97165 21.9547 4.81097Z" fill="black"/>
</g>
<defs>
<clipPath id="clip0_3064_572">
<rect width="23" height="23" fill="white"/>
</clipPath>
</defs>
</svg>
