<svg width="23" height="22" viewBox="0 0 23 22" fill="none" xmlns="http://www.w3.org/2000/svg">
<path d="M16.044 14.1139L15.462 14.6999C15.462 14.6999 14.0787 16.093 10.3028 12.2905C6.52703 8.48815 7.91033 7.09511 7.91033 7.09511L8.2768 6.72604C9.17967 5.81686 9.26477 4.35719 8.47702 3.29157L6.86582 1.11175C5.8909 -0.207167 4.00705 -0.381395 2.88962 0.743895L0.884028 2.76362C0.329958 3.32159 -0.0413384 4.04489 0.00369047 4.84727C0.118882 6.90002 1.0359 11.3167 6.15295 16.4698C11.5793 21.9343 16.6709 22.1515 18.753 21.9549C19.4116 21.8928 19.9843 21.5531 20.4458 21.0882L22.261 19.2604C23.4863 18.0265 23.1408 15.9111 21.5731 15.048L19.1319 13.704C18.1025 13.1373 16.8485 13.3037 16.044 14.1139Z" fill="black"/>
</svg>
