<svg width="1490" height="255" viewBox="0 0 1490 255" fill="none" xmlns="http://www.w3.org/2000/svg">
<g opacity="0.8">
<path d="M1425.93 254.803L1278.83 55.8269L1278.83 254.803L1236.12 254.961L1236.12 0.157588L1299.79 0.000113631L1447.29 199.134L1447.29 0.000126526L1490 0.00013026L1490 254.803L1425.93 254.803Z" fill="black"/>
<path d="M724.457 6.3334e-05C771.479 6.74448e-05 826.061 21.5749 826.061 119.724L826.061 137.402C826.061 221.89 780.233 254.803 725.717 254.803L571.985 254.803L571.985 5.00045e-05L724.49 6.33369e-05L724.457 6.3334e-05ZM783.383 128.622L783.383 126.181C783.383 80.315 761.829 45.9056 720.743 45.9056L614.596 45.9055L614.696 209.055L720.213 209.055C760.768 209.055 783.416 176.535 783.416 128.622L783.383 128.622Z" fill="black"/>
<path d="M477.743 150.669L477.743 104.331L299.937 104.291L299.937 150.433L477.743 150.669Z" fill="black"/>
<path d="M1141.32 9.97771e-05L1141.32 45.9056L963.445 45.9056L963.743 104.528L1129.11 104.606L1129.11 151.024L963.743 151.024L963.445 209.094L1141.32 209.094L1141.32 255L920.9 255L920.9 8.05076e-05L1141.32 9.97771e-05Z" fill="black"/>
<path d="M220.418 1.92695e-05L220.418 45.9055L42.5449 45.9055L42.8433 104.528L208.215 104.606L208.215 151.024L42.8433 151.024L42.5449 209.094L220.418 209.094L220.418 255L-2.22928e-05 255L0 0L220.418 1.92695e-05Z" fill="black"/>
</g>
</svg>
